<svg version="1.1" id="Layer_1" xmlns="http://www.w3.org/2000/svg" xmlns:xlink="http://www.w3.org/1999/xlink" x="0px" y="0px"
	 width="100%" viewBox="0 0 218 55" enable-background="new 0 0 218 55" xml:space="preserve">
<path fill="#000000" opacity="1.000000" stroke="none" 
	d="
M149.000000,56.000000 
	C99.333344,56.000000 50.166691,56.000000 1.000026,56.000000 
	C1.000018,37.666683 1.000018,19.333366 1.000009,1.000036 
	C73.666634,1.000024 146.333267,1.000024 218.999908,1.000012 
	C218.999939,19.333296 218.999939,37.666592 218.999969,55.999943 
	C195.833328,56.000000 172.666672,56.000000 149.000000,56.000000 
M32.828270,34.994209 
	C35.841606,36.446308 38.854942,37.898407 41.955307,39.392441 
	C39.955372,31.361870 37.719963,23.492254 36.086838,15.499574 
	C34.616875,8.305416 33.384003,6.704645 26.684679,8.138296 
	C22.251741,9.086943 16.309694,8.005027 14.409975,14.121684 
	C11.777430,22.597879 9.411516,31.156885 6.534025,41.046268 
	C9.471169,39.433468 11.112736,38.532074 12.754304,37.630680 
	C12.961286,37.888031 13.168267,38.145386 13.375249,38.402737 
	C11.859603,40.347927 10.343956,42.293118 8.115308,45.153381 
	C21.270861,46.781284 33.526104,48.297783 46.779694,49.937820 
	C45.168449,47.651699 44.281616,45.672943 42.787582,44.415813 
	C39.087322,41.302299 35.109371,38.518810 31.670567,35.275776 
	C31.804489,35.156380 31.938412,35.036987 32.828270,34.994209 
M175.430435,34.941334 
	C176.501129,35.625675 177.564697,36.891762 178.643631,36.904995 
	C190.316147,37.048138 201.991058,36.994358 213.999985,36.994358 
	C213.999985,31.909075 213.807251,26.269936 214.059906,20.650826 
	C214.268555,16.010771 211.252579,13.396316 207.796097,13.213397 
	C197.239944,12.654763 186.635391,13.010559 176.163513,13.010559 
	C176.163513,15.648217 176.163513,17.606907 176.163513,19.854980 
	C186.059036,20.420801 195.931732,19.412123 205.603653,21.200733 
	C198.731796,22.000000 191.895981,21.736433 185.094559,22.105928 
	C181.434006,22.304794 177.832428,23.589012 174.029068,24.421877 
	C174.028412,24.416550 173.885986,23.257153 173.675247,21.541849 
	C166.601837,21.541849 159.817703,21.541849 153.033569,21.541849 
	C153.028107,20.895660 153.022644,20.249472 153.017181,19.603283 
	C160.002045,19.603283 166.986908,19.603283 173.820953,19.603283 
	C173.820953,16.315519 173.820953,14.361369 173.820953,12.000000 
	C167.860519,12.000000 162.069504,11.999921 156.278473,12.000017 
	C146.608459,12.000178 145.386475,12.933536 143.320328,21.884212 
	C142.245209,22.009098 141.170105,22.133984 140.145050,22.253054 
	C140.145050,24.613190 140.145050,26.572329 140.145050,28.739468 
	C141.460709,28.925770 142.666946,29.096577 144.220642,29.316587 
	C144.220642,32.367516 144.220642,35.111694 144.220642,37.689835 
	C147.372040,37.689835 150.114761,37.689835 153.234741,37.689835 
	C153.234741,34.638744 153.234741,31.897251 153.234741,29.118773 
	C160.264526,29.118773 166.899719,29.118773 173.499481,29.118773 
	C174.030487,30.894426 174.526047,32.551544 175.430435,34.941334 
M75.506943,20.000000 
	C80.896950,20.490934 86.496498,18.969276 91.694992,21.480574 
	C83.360306,22.000217 75.061150,21.947559 66.763138,22.022049 
	C62.503040,22.060289 60.185795,24.262388 59.988605,28.625820 
	C59.749081,33.926102 61.414791,36.694664 65.910240,36.934338 
	C76.132950,37.479362 86.374161,37.782887 96.609596,37.833668 
	C97.733788,37.839245 99.731506,35.634098 99.844116,34.326813 
	C100.243073,29.695246 99.880188,25.004419 100.033707,20.343548 
	C100.186584,15.702092 96.987190,13.349611 93.492386,13.188239 
	C82.728004,12.691192 71.926079,13.007025 61.167690,13.007025 
	C60.872772,19.993357 60.872772,19.994118 67.015984,19.999630 
	C69.515587,20.001873 72.015182,20.000000 75.506943,20.000000 
M164.507370,47.942474 
	C168.839539,46.577473 174.103210,50.214191 178.075928,45.313374 
	C178.812439,46.163280 179.695709,47.919807 180.378693,47.845119 
	C183.611710,47.491535 186.762482,46.702412 190.046082,47.810413 
	C190.294052,47.894085 191.661575,45.720745 191.901947,44.479115 
	C192.162079,43.135426 191.710327,41.653915 191.570618,40.232227 
	C178.927750,39.424076 178.927750,39.424076 177.240723,42.435112 
	C175.868317,39.442192 170.985382,38.436726 167.243866,40.325359 
	C166.966827,39.207890 166.686066,38.075409 166.668167,38.003159 
	C163.368484,38.764126 160.709824,39.773117 158.005142,39.916985 
	C152.697586,40.199295 147.360306,39.887035 142.044800,40.080750 
	C140.741241,40.128258 139.474243,41.178066 138.927902,41.428722 
	C136.725769,40.783394 134.678131,40.183338 132.191559,39.454655 
	C132.191559,42.771641 132.191559,45.201084 132.191559,47.999985 
	C139.104080,47.999985 145.865448,48.033878 152.626251,47.987682 
	C156.901291,47.958469 161.779007,49.243279 163.819962,43.359283 
	C163.893555,44.666199 163.967148,45.973118 164.507370,47.942474 
M129.432861,38.000000 
	C130.430649,38.000000 131.428436,38.000210 132.426224,37.999966 
	C139.050064,37.998333 139.054459,37.998260 138.993759,31.550539 
	C138.986526,30.781330 138.900116,30.012869 138.834625,28.999979 
	C131.525436,28.999979 124.565681,29.032873 117.606407,28.989113 
	C112.447632,28.956675 111.062820,27.523989 111.006111,22.299368 
	C110.972672,19.218637 111.000008,16.137245 111.000008,13.347106 
	C107.567482,13.347106 104.830078,13.347106 102.000153,13.347106 
	C102.000153,14.517462 102.000153,15.340876 102.000145,16.164289 
	C102.000107,19.323944 101.946472,22.484688 102.010727,25.643034 
	C102.163872,33.170578 104.755707,36.165573 112.265648,36.957710 
	C117.637741,37.524357 123.054489,37.667755 129.432861,38.000000 
M52.165630,6.017825 
	C48.806789,5.861437 45.447945,5.705049 41.832397,5.536709 
	C44.683281,20.027493 48.023026,33.131630 55.396046,44.925816 
	C56.000000,34.421783 56.191471,24.022133 55.858891,13.639270 
	C55.780464,11.190915 53.937000,8.799097 52.165630,6.017825 
M102.410286,40.000000 
	C100.302704,40.000000 98.195122,40.000000 96.188286,40.000000 
	C96.005020,41.990414 95.872154,43.433376 95.739296,44.876339 
	C95.214012,45.032135 94.688728,45.187935 94.163445,45.343731 
	C93.568710,43.665482 92.973969,41.987232 92.361565,40.259125 
	C90.963203,39.983227 89.370956,39.338295 87.835411,39.452946 
	C86.063766,39.585217 83.910469,39.935333 82.742844,41.049862 
	C81.892097,41.861923 81.736504,44.471920 82.422310,45.543606 
	C83.215813,46.783577 85.202049,47.449802 86.801277,47.922634 
	C88.007004,48.279121 89.418655,47.914421 90.738686,47.913086 
	C98.753410,47.904991 106.768158,47.909050 114.753906,47.909050 
	C114.753906,45.030884 114.753906,42.612347 114.753906,39.319542 
	C112.199127,40.153294 110.139984,40.825294 108.634056,41.316753 
	C106.920837,40.891083 105.127625,40.445541 102.410286,40.000000 
M124.998856,40.020844 
	C122.420326,40.020844 119.841805,40.020844 117.201508,40.020844 
	C117.201508,42.929722 117.201508,45.371189 117.201508,47.174454 
	C121.473145,47.174454 125.538666,47.174454 129.801483,47.174454 
	C129.801483,45.288399 129.801483,42.854797 129.801483,40.001431 
	C128.425751,40.001431 127.153091,40.001431 124.998856,40.020844 
z"/>
<path fill="#FFFFFF" opacity="1.000000" stroke="none" 
	d="
M175.226028,34.574997 
	C174.526047,32.551544 174.030487,30.894426 173.499481,29.118773 
	C166.899719,29.118773 160.264526,29.118773 153.234741,29.118773 
	C153.234741,31.897251 153.234741,34.638744 153.234741,37.689835 
	C150.114761,37.689835 147.372040,37.689835 144.220642,37.689835 
	C144.220642,35.111694 144.220642,32.367516 144.220642,29.316587 
	C142.666946,29.096577 141.460709,28.925770 140.145050,28.739468 
	C140.145050,26.572329 140.145050,24.613190 140.145050,22.253054 
	C141.170105,22.133984 142.245209,22.009098 143.321945,21.889389 
	C145.386475,12.933536 146.608459,12.000178 156.278473,12.000017 
	C162.069504,11.999921 167.860519,12.000000 173.820953,12.000000 
	C173.820953,14.361369 173.820953,16.315519 173.820953,19.603283 
	C166.986908,19.603283 160.002045,19.603283 153.017181,19.603283 
	C153.022644,20.249472 153.028107,20.895660 153.033569,21.541849 
	C159.817703,21.541849 166.601837,21.541849 173.675247,21.541849 
	C173.885986,23.257153 174.028412,24.416550 174.029068,24.421877 
	C177.832428,23.589012 181.434006,22.304794 185.094559,22.105928 
	C191.895981,21.736433 198.731796,22.000000 205.603653,21.200733 
	C195.931732,19.412123 186.059036,20.420801 176.163513,19.854980 
	C176.163513,17.606907 176.163513,15.648217 176.163513,13.010559 
	C186.635391,13.010559 197.239944,12.654763 207.796097,13.213397 
	C211.252579,13.396316 214.268555,16.010771 214.059906,20.650826 
	C213.807251,26.269936 213.999985,31.909075 213.999985,36.994358 
	C201.991058,36.994358 190.316147,37.048138 178.643631,36.904995 
	C177.564697,36.891762 176.501129,35.625675 175.226028,34.574997 
M190.596069,29.000000 
	C187.858719,29.000000 185.121384,29.000000 182.384033,29.000000 
	C182.374008,29.660252 182.363983,30.320505 182.353943,30.980757 
	C190.198044,30.977657 198.038834,31.111938 205.888672,30.870388 
	C205.907852,30.246925 205.927032,29.623463 205.946213,29.000000 
	C201.153641,29.000000 196.361069,29.000000 190.596069,29.000000 
z"/>
<path fill="#FFFFFF" opacity="1.000000" stroke="none" 
	d="
M31.242990,35.602722 
	C35.109371,38.518810 39.087322,41.302299 42.787582,44.415813 
	C44.281616,45.672943 45.168449,47.651699 46.779694,49.937820 
	C33.526104,48.297783 21.270861,46.781284 8.115308,45.153381 
	C10.343956,42.293118 11.859603,40.347927 13.375249,38.402737 
	C13.168267,38.145386 12.961286,37.888031 12.754304,37.630680 
	C11.112736,38.532074 9.471169,39.433468 6.534025,41.046268 
	C9.411516,31.156885 11.777430,22.597879 14.409975,14.121684 
	C16.309694,8.005027 22.251741,9.086943 26.684679,8.138296 
	C33.384003,6.704645 34.616875,8.305416 36.086838,15.499574 
	C37.719963,23.492254 39.955372,31.361870 41.955307,39.392441 
	C38.854942,37.898407 35.841606,36.446308 32.289940,34.615158 
	C29.347233,33.463184 26.942854,32.690262 24.538475,31.917339 
	C24.444454,32.210178 24.350433,32.503017 24.256413,32.795856 
	C26.585272,33.731480 28.914131,34.667103 31.242990,35.602722 
M20.944822,27.607670 
	C19.725588,29.116060 18.506355,30.624453 17.287121,32.132843 
	C17.766964,32.468140 18.246807,32.803440 18.726650,33.138737 
	C19.664457,31.145342 20.602262,29.151947 20.944822,27.607670 
z"/>
<path fill="#FFFFFF" opacity="1.000000" stroke="none" 
	d="
M75.010864,20.000000 
	C72.015182,20.000000 69.515587,20.001873 67.015984,19.999630 
	C60.872772,19.994118 60.872772,19.993357 61.167690,13.007025 
	C71.926079,13.007025 82.728004,12.691192 93.492386,13.188239 
	C96.987190,13.349611 100.186584,15.702092 100.033707,20.343548 
	C99.880188,25.004419 100.243073,29.695246 99.844116,34.326813 
	C99.731506,35.634098 97.733788,37.839245 96.609596,37.833668 
	C86.374161,37.782887 76.132950,37.479362 65.910240,36.934338 
	C61.414791,36.694664 59.749081,33.926102 59.988605,28.625820 
	C60.185795,24.262388 62.503040,22.060289 66.763138,22.022049 
	C75.061150,21.947559 83.360306,22.000217 91.694992,21.480574 
	C86.496498,18.969276 80.896950,20.490934 75.010864,20.000000 
M83.448006,31.000000 
	C86.295975,31.000000 89.143944,31.000000 91.991913,31.000000 
	C91.966827,30.435263 91.941750,29.870527 91.916664,29.305790 
	C84.063362,29.305790 76.210060,29.305790 68.356766,29.305790 
	C72.842545,31.712378 77.733353,30.681921 83.448006,31.000000 
z"/>
<path fill="#FFFFFF" opacity="1.000000" stroke="none" 
	d="
M164.274048,47.611256 
	C163.967148,45.973118 163.893555,44.666199 163.819962,43.359283 
	C161.779007,49.243279 156.901291,47.958469 152.626251,47.987682 
	C145.865448,48.033878 139.104080,47.999985 132.191559,47.999985 
	C132.191559,45.201084 132.191559,42.771641 132.191559,39.454655 
	C134.678131,40.183338 136.725769,40.783394 138.927902,41.428722 
	C139.474243,41.178066 140.741241,40.128258 142.044800,40.080750 
	C147.360306,39.887035 152.697586,40.199295 158.005142,39.916985 
	C160.709824,39.773117 163.368484,38.764126 166.668167,38.003159 
	C166.686066,38.075409 166.966827,39.207890 167.243866,40.325359 
	C170.985382,38.436726 175.868317,39.442192 177.240723,42.435112 
	C178.927750,39.424076 178.927750,39.424076 191.569824,40.232372 
	C191.710327,41.653915 192.162079,43.135426 191.901947,44.479115 
	C191.661575,45.720745 190.294052,47.894085 190.046082,47.810413 
	C186.762482,46.702412 183.611710,47.491535 180.378693,47.845119 
	C179.695709,47.919807 178.812439,46.163280 178.075928,45.313374 
	C174.103210,50.214191 168.839539,46.577473 164.274048,47.611256 
z"/>
<path fill="#FFFFFF" opacity="1.000000" stroke="none" 
	d="
M128.942078,38.000000 
	C123.054489,37.667755 117.637741,37.524357 112.265648,36.957710 
	C104.755707,36.165573 102.163872,33.170578 102.010727,25.643034 
	C101.946472,22.484688 102.000107,19.323944 102.000145,16.164289 
	C102.000153,15.340876 102.000153,14.517462 102.000153,13.347106 
	C104.830078,13.347106 107.567482,13.347106 111.000008,13.347106 
	C111.000008,16.137245 110.972672,19.218637 111.006111,22.299368 
	C111.062820,27.523989 112.447632,28.956675 117.606407,28.989113 
	C124.565681,29.032873 131.525436,28.999979 138.834625,28.999979 
	C138.900116,30.012869 138.986526,30.781330 138.993759,31.550539 
	C139.054459,37.998260 139.050064,37.998333 132.426224,37.999966 
	C131.428436,38.000210 130.430649,38.000000 128.942078,38.000000 
z"/>
<path fill="#FFFFFF" opacity="1.000000" stroke="none" 
	d="
M52.535568,6.199548 
	C53.937000,8.799097 55.780464,11.190915 55.858891,13.639270 
	C56.191471,24.022133 56.000000,34.421783 55.396046,44.925816 
	C48.023026,33.131630 44.683281,20.027493 41.832397,5.536709 
	C45.447945,5.705049 48.806789,5.861437 52.535568,6.199548 
z"/>
<path fill="#FFFFFF" opacity="1.000000" stroke="none" 
	d="
M102.872353,40.000000 
	C105.127625,40.445541 106.920837,40.891083 108.634056,41.316753 
	C110.139984,40.825294 112.199127,40.153294 114.753906,39.319542 
	C114.753906,42.612347 114.753906,45.030884 114.753906,47.909050 
	C106.768158,47.909050 98.753410,47.904991 90.738686,47.913086 
	C89.418655,47.914421 88.007004,48.279121 86.801277,47.922634 
	C85.202049,47.449802 83.215813,46.783577 82.422310,45.543606 
	C81.736504,44.471920 81.892097,41.861923 82.742844,41.049862 
	C83.910469,39.935333 86.063766,39.585217 87.835411,39.452946 
	C89.370956,39.338295 90.963203,39.983227 92.361565,40.259125 
	C92.973969,41.987232 93.568710,43.665482 94.163445,45.343731 
	C94.688728,45.187935 95.214012,45.032135 95.739296,44.876339 
	C95.872154,43.433376 96.005020,41.990414 96.188286,40.000000 
	C98.195122,40.000000 100.302704,40.000000 102.872353,40.000000 
z"/>
<path fill="#FFFFFF" opacity="1.000000" stroke="none" 
	d="
M125.439644,40.011139 
	C127.153091,40.001431 128.425751,40.001431 129.801483,40.001431 
	C129.801483,42.854797 129.801483,45.288399 129.801483,47.174454 
	C125.538666,47.174454 121.473145,47.174454 117.201508,47.174454 
	C117.201508,45.371189 117.201508,42.929722 117.201508,40.020844 
	C119.841805,40.020844 122.420326,40.020844 125.439644,40.011139 
z"/>
<path fill="#000000" opacity="1.000000" stroke="none" 
	d="
M191.082275,29.000000 
	C196.361069,29.000000 201.153641,29.000000 205.946213,29.000000 
	C205.927032,29.623463 205.907852,30.246925 205.888672,30.870388 
	C198.038834,31.111938 190.198044,30.977657 182.353943,30.980757 
	C182.363983,30.320505 182.374008,29.660252 182.384033,29.000000 
	C185.121384,29.000000 187.858719,29.000000 191.082275,29.000000 
z"/>
<path fill="#000000" opacity="1.000000" stroke="none" 
	d="
M21.242447,27.383110 
	C20.602262,29.151947 19.664457,31.145342 18.726650,33.138737 
	C18.246807,32.803440 17.766964,32.468140 17.287121,32.132843 
	C18.506355,30.624453 19.725588,29.116060 21.242447,27.383110 
z"/>
<path fill="#000000" opacity="1.000000" stroke="none" 
	d="
M31.456779,35.439247 
	C28.914131,34.667103 26.585272,33.731480 24.256413,32.795856 
	C24.350433,32.503017 24.444454,32.210178 24.538475,31.917339 
	C26.942854,32.690262 29.347233,33.463184 31.911972,34.576851 
	C31.938412,35.036987 31.804489,35.156380 31.456779,35.439247 
z"/>
<path fill="#000000" opacity="1.000000" stroke="none" 
	d="
M82.956650,31.000000 
	C77.733353,30.681921 72.842545,31.712378 68.356766,29.305790 
	C76.210060,29.305790 84.063362,29.305790 91.916664,29.305790 
	C91.941750,29.870527 91.966827,30.435263 91.991913,31.000000 
	C89.143944,31.000000 86.295975,31.000000 82.956650,31.000000 
z"/>
</svg>